<?xml version="1.0" standalone="no"?>
<!DOCTYPE svg>
<svg version="1.0" xmlns="http://www.w3.org/2000/svg"
 width="1080.000000pt" height="1080.000000pt" viewBox="0 0 1080.000000 1080.000000"
 preserveAspectRatio="xMidYMid meet">

<g transform="translate(0.000000,1080.000000) scale(0.100000,-0.100000)"
fill="#000000" stroke="none">
<path d="M9035 10757 c-4 -25 -1 -184 5 -354 7 -169 10 -366 7 -438 -4 -71 -2
-245 4 -385 6 -140 11 -615 11 -1055 -1 -656 -4 -826 -16 -945 -9 -80 -16
-190 -16 -245 0 -55 -4 -163 -9 -240 -5 -77 -12 -266 -16 -420 -6 -280 -30
-727 -41 -771 -6 -24 -8 -24 -130 -24 -67 0 -145 -4 -171 -9 -26 -6 -113 -12
-193 -15 -219 -9 -334 -18 -344 -26 -20 -19 7 -31 62 -25 166 15 215 18 297
20 50 1 153 7 230 13 77 7 161 12 188 12 l47 0 0 -49 0 -48 -57 -7 c-32 -3
-170 -11 -308 -16 -238 -10 -424 -23 -527 -36 -33 -5 -48 -3 -48 5 0 6 4 11
10 11 5 0 16 12 24 28 8 15 39 56 70 90 31 35 56 67 56 73 0 6 11 25 25 43 14
18 25 38 25 44 0 7 4 12 8 12 5 0 36 39 68 88 32 48 63 89 67 90 4 2 18 25 32
52 13 26 35 60 48 76 30 36 66 106 102 199 15 39 34 83 42 98 13 26 12 32 -11
80 -46 94 -94 170 -178 283 -37 50 -68 95 -68 101 0 11 -79 86 -125 118 -16
11 -45 34 -65 50 -49 41 -160 113 -307 201 -17 10 -76 47 -130 82 -54 34 -134
76 -178 93 -44 17 -89 39 -100 48 -27 24 -198 87 -255 95 -25 3 -126 8 -225
11 -158 6 -235 17 -235 35 0 3 5 12 10 20 8 13 10 12 10 -2 0 -17 20 -27 20
-10 1 26 32 280 49 397 10 77 22 181 25 230 4 50 9 118 12 153 3 37 2 62 -4
62 -6 0 -9 11 -8 25 0 14 4 25 7 25 3 0 7 25 8 55 2 42 -2 57 -13 61 -9 3 -16
10 -16 15 0 12 37 11 45 -1 3 -5 15 -10 26 -10 20 0 20 0 -1 28 l-22 27 22 3
c13 2 26 -2 30 -8 8 -13 30 -6 30 9 0 5 -18 20 -39 34 -22 15 -42 35 -45 45
-4 11 -19 22 -34 25 -41 8 -95 49 -102 77 -6 23 -10 25 -66 25 -32 1 -64 4
-70 8 -6 3 -14 24 -18 46 -6 39 -7 40 -39 35 -17 -3 -43 -6 -56 -8 -13 -2 -28
-11 -33 -19 -5 -9 -15 -14 -22 -11 -8 3 -17 1 -21 -5 -10 -16 -23 -13 -28 7
-4 16 -5 16 -6 -1 -1 -13 -6 -17 -20 -12 -11 3 -22 1 -26 -5 -3 -5 -1 -10 4
-10 6 0 11 -4 11 -10 0 -5 -7 -10 -15 -10 -8 0 -15 7 -15 15 0 8 -8 15 -17 16
-131 5 -143 4 -143 -8 0 -18 -47 -46 -65 -39 -8 3 -15 15 -15 26 0 15 -5 20
-17 18 -14 -3 -17 -12 -15 -42 3 -32 1 -37 -15 -36 -33 4 -43 0 -43 -15 0 -8
-11 -17 -24 -21 -14 -3 -27 -12 -30 -20 -3 -8 -13 -14 -23 -14 -42 -1 -46 -14
-25 -76 22 -65 37 -158 23 -150 -5 3 -11 24 -15 46 -5 32 -10 41 -24 38 -13
-3 -17 -13 -16 -41 1 -25 -3 -37 -12 -37 -8 0 -14 5 -14 10 0 6 -7 10 -16 10
-11 0 -14 -6 -8 -22 15 -51 47 -108 60 -108 7 0 16 -16 20 -37 4 -21 20 -69
36 -108 16 -38 32 -79 35 -90 4 -11 12 -30 20 -41 12 -19 121 -321 144 -401 5
-17 18 -42 29 -55 17 -19 21 -21 29 -8 12 17 10 19 45 -50 36 -71 54 -90 83
-90 12 0 23 -4 23 -8 0 -5 -50 -12 -110 -16 -85 -5 -122 -12 -163 -30 -81 -38
-235 -77 -317 -82 -87 -6 -150 -22 -150 -39 0 -7 -34 -79 -76 -161 l-76 -149
-5 -277 c-6 -265 -7 -278 -25 -278 -17 0 -18 5 -11 38 4 20 8 99 8 174 0 174
-2 178 -105 160 -39 -7 -105 -12 -148 -13 -42 0 -99 -4 -127 -7 -45 -6 -50
-10 -56 -38 -3 -19 3 -67 18 -125 l24 -94 -44 -48 c-62 -68 -86 -150 -47 -162
16 -5 20 -15 20 -55 0 -28 5 -52 13 -57 16 -11 114 -32 152 -32 42 -1 52 -30
60 -176 4 -66 11 -140 16 -165 5 -25 14 -108 19 -185 6 -77 13 -154 16 -170
l6 -31 -129 4 c-83 3 -173 -1 -258 -12 -134 -16 -562 -39 -577 -30 -11 7 -626
7 -637 0 -5 -3 -100 -8 -212 -11 -112 -3 -215 -8 -228 -11 -37 -8 -571 -17
-838 -14 -171 2 -243 -1 -243 -9 0 -18 35 -21 325 -21 362 -1 601 5 800 20 88
7 383 14 655 15 428 2 880 18 901 30 13 8 441 7 449 -2 5 -4 12 -31 15 -59 l7
-51 -83 -6 c-46 -4 -196 -10 -334 -13 -137 -2 -275 -9 -305 -14 -30 -5 -107
-10 -170 -11 -63 0 -216 -5 -340 -10 -124 -5 -382 -11 -575 -14 -192 -3 -408
-9 -480 -15 -71 -5 -266 -10 -432 -10 -255 0 -303 -2 -303 -14 0 -8 4 -16 10
-18 14 -4 651 9 960 20 140 5 270 5 290 1 19 -5 78 -4 130 2 52 5 208 11 345
14 138 2 351 9 475 14 437 20 811 33 816 29 8 -9 52 -193 59 -251 3 -32 12
-75 19 -95 13 -36 14 -37 97 -53 128 -26 129 -26 182 32 26 29 47 56 47 61 0
4 4 16 9 26 5 9 17 46 27 82 9 36 25 92 35 124 11 33 19 72 19 88 l0 29 77 -3
77 -3 8 -36 c4 -19 8 -76 10 -125 l3 -89 -27 3 c-23 2 -28 -3 -38 -35 -6 -21
-17 -54 -25 -73 -7 -19 -18 -62 -25 -95 -7 -33 -20 -96 -30 -140 -21 -88 -54
-293 -69 -425 -5 -47 -19 -123 -30 -170 -15 -63 -23 -143 -30 -312 -5 -125
-12 -231 -15 -236 -3 -5 -10 -60 -16 -123 -5 -63 -15 -124 -22 -136 -12 -25 3
-53 28 -53 27 0 291 -84 391 -125 35 -14 42 -21 41 -43 0 -15 4 -43 10 -63 l9
-36 -276 -8 c-425 -11 -811 -13 -811 -4 0 4 6 14 13 21 11 11 60 101 120 219
36 73 33 94 -28 224 -248 522 -274 555 -470 606 -38 10 -117 34 -175 55 -96
34 -109 42 -160 96 -52 55 -62 61 -168 98 -66 23 -141 41 -180 45 -37 3 -109
10 -160 16 -51 6 -154 10 -230 7 l-137 -4 0 250 0 251 -105 3 c-79 2 -127 -2
-195 -18 -49 -11 -101 -23 -115 -26 -59 -12 -110 -40 -121 -66 -14 -35 -10
-65 30 -207 24 -87 29 -117 20 -127 -9 -11 -8 -14 5 -14 9 0 16 -4 16 -9 0 -6
-76 -10 -178 -11 -194 -1 -250 -7 -381 -43 -147 -41 -175 -46 -411 -63 -69 -5
-120 -22 -120 -39 0 -7 21 -20 46 -29 26 -9 69 -30 95 -47 48 -31 63 -47 34
-35 -17 6 -21 -24 -6 -52 6 -9 14 -51 20 -92 6 -41 17 -98 24 -125 37 -127 79
-324 101 -476 14 -91 39 -219 55 -285 17 -65 31 -127 31 -136 0 -17 -60 -18
-1120 -18 -1114 0 -1120 0 -1120 -20 0 -20 4 -20 1129 -14 l1129 6 7 -73 c4
-41 12 -85 18 -99 13 -34 45 -222 39 -237 -2 -7 -15 -13 -29 -13 -19 0 -23 -4
-19 -18 4 -12 -1 -25 -13 -36 -11 -10 -17 -24 -14 -31 4 -12 -1 -72 -37 -415
-13 -119 -28 -306 -35 -430 -10 -179 -28 -350 -37 -350 -4 0 -8 -10 -8 -23 0
-18 10 -26 52 -41 29 -10 55 -21 58 -25 15 -19 279 -143 362 -171 l98 -32 0
-55 c0 -62 21 -71 30 -12 5 32 7 34 40 32 19 0 47 -4 63 -8 21 -6 27 -4 27 9
0 14 16 16 143 11 78 -3 236 -7 351 -10 180 -4 210 -7 221 -21 7 -10 19 -15
29 -11 12 5 16 1 16 -17 0 -25 22 -51 33 -39 4 3 7 23 7 44 0 40 11 49 61 49
25 0 29 3 25 18 -5 14 3 22 34 36 22 9 69 37 104 62 36 24 69 44 75 44 5 0 45
26 88 58 43 31 104 70 136 87 31 16 57 34 58 40 0 5 4 0 9 -12 14 -36 38 -26
31 11 -1 6 3 21 11 34 11 20 10 26 -4 36 -10 7 -20 40 -27 87 -13 84 -82 359
-130 519 -18 58 -39 129 -47 158 -8 30 -19 62 -24 72 -6 10 -10 31 -11 47 0
15 -11 60 -23 98 -21 62 -23 84 -19 200 3 77 10 142 18 160 8 17 19 57 25 90
7 33 16 65 20 70 4 6 7 25 7 42 0 18 3 36 7 40 16 16 486 30 486 14 0 -4 -9
-20 -20 -34 -11 -14 -20 -31 -20 -39 0 -22 -149 -312 -166 -323 -12 -8 -21 -2
-42 23 -26 31 -30 33 -72 26 -38 -6 -56 -18 -112 -74 -38 -37 -68 -74 -68 -83
0 -28 60 -116 83 -123 82 -24 166 -58 161 -65 -9 -15 44 -21 78 -10 51 17 154
124 272 281 30 41 68 90 83 109 42 52 64 86 133 207 l63 111 66 8 c75 8 284
13 981 21 267 3 488 8 493 11 4 2 7 0 7 -4 0 -5 62 -8 138 -8 75 0 187 -1 247
-3 61 -2 193 2 294 7 167 10 185 9 196 -6 11 -14 13 -15 21 -1 7 12 50 16 254
22 135 3 286 10 335 16 50 5 266 14 480 20 215 6 437 15 495 20 270 24 240 26
289 -12 90 -68 113 -86 258 -203 81 -66 153 -125 158 -131 12 -13 231 -182
265 -204 26 -17 111 -79 215 -156 39 -28 100 -78 136 -110 35 -33 112 -97 169
-144 58 -47 125 -105 150 -129 25 -24 63 -55 85 -70 22 -14 46 -32 53 -38 7
-7 17 -13 21 -13 4 0 17 -9 29 -20 l22 -21 0 29 c0 26 -10 36 -81 82 -44 29
-88 63 -97 74 -9 12 -62 59 -117 104 -105 88 -167 140 -225 192 -51 45 -252
197 -349 264 -46 32 -129 95 -183 140 -54 44 -135 109 -180 144 -77 59 -157
124 -182 147 -6 6 -47 39 -90 74 l-80 63 -75 -6 c-42 -4 -116 -11 -166 -16
-49 -5 -301 -17 -560 -25 -258 -9 -508 -19 -555 -24 -47 -4 -173 -9 -281 -10
l-196 -2 4 33 c3 18 7 40 10 48 3 8 5 32 4 52 -3 46 20 81 55 85 27 4 84 32
164 81 31 20 46 36 48 53 2 14 -11 83 -27 152 -20 84 -34 176 -41 273 -6 93
-18 171 -31 213 -11 36 -24 118 -30 181 -8 108 -20 175 -40 244 -5 16 -12 68
-15 115 -3 47 -16 124 -30 171 -27 99 -55 288 -42 296 4 3 8 2 8 -3 0 -4 23
-27 50 -51 l50 -43 50 30 c28 17 54 31 59 31 20 0 68 51 86 89 10 23 22 41 27
41 4 0 8 5 8 11 0 23 169 224 219 260 38 28 41 28 336 50 228 16 397 24 515
24 l115 0 -1 -45 c-1 -25 -5 -80 -9 -122 -4 -43 -6 -78 -4 -78 2 0 29 9 59 21
112 42 134 44 205 14 17 -7 42 -17 56 -23 39 -15 98 0 159 43 79 56 124 58
217 10 105 -54 134 -55 211 -10 68 41 97 43 167 9 35 -16 113 -16 173 2 19 5
22 3 22 -20 0 -14 5 -26 10 -26 6 0 10 15 10 34 0 30 6 37 45 60 25 15 45 31
45 36 0 13 -1 13 -43 -5 l-34 -14 3 472 c3 260 9 573 14 697 10 245 13 1114 5
1435 -4 157 -13 844 -17 1300 -1 33 5 182 12 330 8 149 14 376 14 505 1 129 6
287 13 350 12 111 10 138 -6 112 -12 -20 -25 -297 -26 -532 0 -113 -3 -210 -7
-216 -9 -14 -32 -420 -31 -544 0 -52 4 -381 8 -730 10 -817 7 -1831 -6 -1985
-5 -66 -9 -366 -9 -667 0 -539 0 -548 -20 -558 -37 -20 -114 -24 -151 -8 -75
33 -91 38 -120 38 -17 0 -58 -16 -90 -35 -33 -19 -71 -35 -84 -35 -14 0 -60
18 -102 40 -116 59 -174 53 -277 -29 -46 -37 -68 -38 -121 -10 -43 23 -121 29
-207 14 l-48 -8 0 49 c0 27 5 97 12 157 l11 107 56 1 56 1 -55 11 c-50 11 -55
14 -53 37 20 294 40 719 42 906 1 77 6 192 11 255 5 63 10 175 10 249 0 75 7
192 16 260 12 104 15 273 16 995 0 479 -1 913 -4 965 -3 52 -10 302 -16 555
-11 454 -21 717 -27 723 -2 2 -7 -17 -10 -41z m-2525 -1624 c0 -12 -8 -18 -25
-19 -27 -2 -31 6 -13 24 18 18 38 15 38 -5z m-260 -38 c0 -8 -2 -15 -4 -15 -2
0 -6 7 -10 15 -3 8 -1 15 4 15 6 0 10 -7 10 -15z m237 -15 c4 -11 2 -12 -5 -2
-5 7 -16 10 -25 7 -9 -4 -24 -2 -34 4 -15 9 -11 11 21 9 25 -2 41 -9 43 -18z
m-340 -42 c-3 -7 -5 -2 -5 12 0 14 2 19 5 13 2 -7 2 -19 0 -25z m-20 8 c-3 -7
-2 -17 2 -22 4 -5 2 -20 -5 -34 l-14 -25 0 23 c0 13 -4 20 -10 17 -6 -4 -10 7
-10 24 0 25 4 31 21 31 14 0 19 -5 16 -14z m263 -83 c6 -54 10 -127 8 -163
l-3 -65 -31 100 c-44 141 -55 182 -52 197 3 11 23 20 59 27 4 0 12 -43 19 -96z
m95 -30 c-4 -65 -10 -122 -15 -126 -4 -4 -12 18 -18 50 -6 32 -14 72 -17 88
-4 17 -9 47 -12 68 l-5 37 37 0 37 0 -7 -117z m144 29 c-4 -83 -15 -94 -28
-27 -7 33 -14 65 -16 72 -6 18 6 23 27 12 15 -8 18 -20 17 -57z m-354 -82 c1
-8 5 -49 9 -90 l6 -75 -35 135 c-19 74 -34 142 -34 150 0 15 48 -91 54 -120z
m-108 69 c2 -12 -1 -18 -7 -14 -5 3 -10 16 -10 27 0 26 13 16 17 -13z m-182
-36 c-19 -18 -30 -16 -15 2 9 11 10 18 1 28 -6 8 -8 17 -4 21 4 4 12 -3 19
-16 9 -17 9 -25 -1 -35z m-65 39 c0 -13 -12 -22 -22 -16 -10 6 -1 24 13 24 5
0 9 -4 9 -8z m225 -29 c6 -33 9 -35 16 -18 9 18 9 18 5 -2 -2 -13 2 -48 11
-79 8 -31 13 -68 11 -82 l-4 -27 -7 30 c-4 17 -19 64 -32 105 -14 42 -25 83
-25 93 0 32 18 17 25 -20z m428 0 c28 -174 33 -421 8 -446 -8 -8 -11 -3 -11
20 0 36 -9 65 -19 59 -5 -3 -4 234 1 372 2 43 14 41 21 -5z m88 -138 l-9 -40
-1 55 c0 30 3 73 7 95 l7 40 3 -55 c1 -30 -1 -73 -7 -95z m-556 82 c4 -23 14
-54 21 -69 15 -29 19 -78 6 -62 -8 8 -52 161 -52 178 0 4 4 5 9 2 5 -4 12 -25
16 -49z m-61 -30 c15 -44 29 -123 39 -227 l5 -45 -25 55 c-42 92 -46 105 -44
118 1 6 -3 12 -9 12 -5 0 -10 5 -10 10 0 6 7 10 16 10 12 0 14 4 7 13 -12 16
-16 125 -4 112 5 -6 16 -31 25 -58z m721 -70 c-3 -56 -8 -136 -11 -177 -11
-141 -12 -265 -3 -282 7 -13 6 -18 -4 -18 -10 0 -13 -13 -10 -50 1 -27 -1 -50
-6 -50 -15 0 -17 36 -9 155 4 61 10 171 13 245 4 74 8 155 10 180 2 25 3 60 4
78 1 20 5 31 11 27 7 -4 8 -44 5 -108z m-773 63 c2 -23 0 -46 -4 -53 -4 -7 -7
-4 -7 8 0 11 -2 35 -5 53 -3 17 -2 32 3 32 5 0 11 -18 13 -40z m458 -104 c0
-3 -4 -8 -10 -11 -5 -3 -10 -1 -10 4 0 6 5 11 10 11 6 0 10 -2 10 -4z m-75
-122 c2 -41 -1 -74 -6 -74 -5 0 -9 -11 -9 -25 0 -14 5 -25 11 -25 5 0 7 -5 3
-11 -3 -6 -10 -7 -14 -2 -8 8 -30 178 -30 229 l0 28 21 -23 c16 -17 22 -38 24
-97z m-225 21 c0 -6 9 -20 20 -30 22 -20 46 -82 54 -140 6 -41 3 -37 -24 30
-11 28 -13 28 -20 10 -14 -33 -12 -55 5 -49 8 4 15 1 15 -5 0 -6 -4 -11 -10
-11 -5 0 -10 -14 -10 -31 0 -42 -16 -28 -18 16 -1 19 -6 44 -12 54 -7 13 -7
22 0 26 5 3 10 0 11 -7 0 -7 5 0 11 16 9 23 6 37 -13 80 -13 28 -30 57 -36 64
-7 7 -13 19 -13 25 1 16 40 -32 40 -48z m120 9 c0 -19 -4 -34 -10 -34 -5 0
-10 18 -10 41 0 24 4 38 10 34 6 -3 10 -22 10 -41z m-320 -6 c0 -5 -4 -8 -10
-8 -5 0 -10 10 -10 23 0 18 2 19 10 7 5 -8 10 -18 10 -22z m513 9 c3 -7 11
-54 18 -103 10 -74 10 -102 -1 -150 -7 -33 -15 -160 -18 -289 -6 -251 -14
-255 -32 -15 -7 80 -15 152 -20 161 -10 19 -1 71 14 81 7 5 9 58 7 157 -1 83
0 155 4 161 9 14 22 13 28 -3z m-423 -66 c-1 -17 -30 36 -30 53 1 16 5 12 15
-13 8 -18 15 -36 15 -40z m-90 18 c0 -11 -4 -17 -10 -14 -5 3 -10 13 -10 21 0
8 5 14 10 14 6 0 10 -9 10 -21z m707 -41 c-2 -13 -4 -5 -4 17 -1 22 1 32 4 23
2 -10 2 -28 0 -40z m-359 -64 c10 -62 23 -389 15 -380 -10 10 -39 176 -31 184
9 9 -3 160 -19 251 -4 26 -2 32 8 29 8 -3 19 -36 27 -84z m-248 66 c0 -5 -2
-10 -4 -10 -3 0 -8 5 -11 10 -3 6 -1 10 4 10 6 0 11 -4 11 -10z m-84 -47 c3
-16 9 -38 14 -50 6 -13 6 -23 1 -23 -10 0 -20 21 -31 68 -4 17 -4 32 1 32 5 0
11 -12 15 -27z m418 2 c-4 -8 -8 -15 -10 -15 -2 0 -4 7 -4 15 0 8 4 15 10 15
5 0 7 -7 4 -15z m-301 -15 c4 -17 2 -18 -14 -9 -11 5 -17 14 -14 20 10 15 22
10 28 -11z m550 -177 c-2 -143 -12 -275 -22 -292 -4 -7 -11 36 -15 96 -4 59
-11 137 -15 173 -4 36 -4 67 1 68 4 2 8 7 8 12 0 22 21 60 32 60 10 0 13 -28
11 -117z m-517 52 c12 -51 1 -61 -15 -14 -13 37 -14 59 -3 59 4 0 12 -20 18
-45z m423 -156 c6 -47 11 -110 11 -140 0 -90 23 -304 33 -311 6 -3 -7 -9 -29
-13 -59 -10 -65 -16 -10 -10 27 3 51 6 53 8 1 2 -1 18 -6 35 -8 25 -7 32 5 32
13 0 18 -15 16 -49 0 -10 11 -12 43 -9 24 3 48 1 53 -4 5 -5 126 -13 268 -17
l259 -7 87 -42 c48 -23 91 -50 97 -60 5 -10 28 -27 50 -37 l41 -18 0 -71 c0
-69 -19 -186 -56 -353 l-18 -83 -42 0 c-24 0 -44 5 -46 12 -2 6 -10 8 -17 4
-20 -13 6 -35 55 -47 52 -13 51 -1 28 -234 -17 -180 -30 -359 -43 -582 -5 -84
-12 -156 -14 -160 -18 -28 -39 -269 -34 -373 5 -89 3 -121 -8 -140 -8 -14 -14
-37 -15 -52 0 -16 -2 -28 -5 -28 -3 0 -58 -14 -123 -31 -478 -125 -646 -159
-792 -159 -36 0 -81 4 -100 10 -19 5 -90 14 -158 20 -176 14 -168 11 -175 78
-12 122 -38 291 -52 343 -8 30 -26 106 -40 169 -14 63 -34 135 -44 160 -10 25
-28 90 -40 145 -12 55 -28 123 -36 150 -30 107 -73 529 -79 773 -1 47 -3 52
-21 50 -26 -4 -25 -37 3 -338 35 -368 51 -508 73 -639 18 -106 20 -146 14
-270 -4 -80 -13 -182 -21 -226 -8 -44 -14 -98 -14 -121 0 -22 -6 -60 -14 -85
-8 -24 -29 -89 -46 -144 -23 -75 -41 -111 -69 -143 l-37 -43 -45 10 c-24 6
-62 14 -84 19 l-39 8 -18 99 c-9 55 -28 145 -42 200 -49 199 -69 319 -86 535
-35 430 -44 490 -71 490 -6 0 -32 17 -58 39 -25 21 -62 41 -81 45 -19 3 -45
14 -57 24 -20 15 -22 21 -13 52 13 45 58 96 71 83 7 -7 6 -18 -3 -32 -16 -26
-6 -35 56 -52 21 -6 56 -21 77 -35 21 -13 46 -24 54 -24 28 0 55 -19 49 -35
-4 -9 0 -15 10 -15 9 0 16 7 16 15 0 8 -4 15 -9 15 -5 0 -11 11 -13 24 -4 22
1 25 72 45 43 11 83 21 90 21 14 0 10 -210 -10 -460 -5 -69 -15 -224 -20 -345
-6 -121 -13 -254 -15 -295 -2 -41 -2 -66 1 -55 4 11 10 25 14 30 10 12 27 197
35 390 4 77 15 192 25 255 19 121 27 311 32 780 l3 275 73 145 c40 80 80 150
90 157 10 7 50 17 90 23 65 9 295 65 313 75 25 16 224 46 284 43 l70 -3 -1
100 c0 55 -5 152 -10 215 -17 197 -1 184 24 -20 25 -197 37 -260 51 -260 5 0
23 3 41 6 l32 7 -6 86 c-3 47 -8 158 -10 246 -6 257 9 313 33 124z m-305 28
c4 -19 3 -26 -4 -22 -5 3 -10 18 -10 32 0 32 5 28 14 -10z m133 -19 c-3 -7 -5
-2 -5 12 0 14 2 19 5 13 2 -7 2 -19 0 -25z m-117 -62 c0 -27 -10 -14 -16 20
-3 22 -2 25 6 14 5 -8 10 -24 10 -34z m7 -58 c-3 -8 -6 -5 -6 6 -1 11 2 17 5
13 3 -3 4 -12 1 -19z m503 -27 c-5 -11 -10 -46 -11 -78 -1 -44 -3 -52 -9 -33
-10 31 -12 114 -3 123 3 4 12 7 20 7 10 0 11 -5 3 -19z m-481 -46 l0 -20 -9
20 c-5 11 -9 27 -9 35 -1 13 0 13 9 0 5 -8 9 -24 9 -35z m-139 9 c0 -14 -3
-14 -15 -4 -8 7 -15 14 -15 16 0 2 7 4 15 4 8 0 15 -7 15 -16z m19 -73 c0 -14
-1 -14 -6 -1 -3 8 -10 24 -15 35 -9 20 -9 20 6 1 9 -11 16 -27 15 -35z m139
-56 c-3 -3 -9 2 -12 12 -6 14 -5 15 5 6 7 -7 10 -15 7 -18z m386 -17 c17 -113
17 -115 -6 -121 -12 -3 -24 -4 -27 -2 -9 5 11 155 21 155 4 0 9 -15 12 -32z
m1036 -435 c184 -114 295 -187 370 -242 30 -23 69 -51 85 -63 90 -65 213 -215
302 -368 79 -137 79 -136 61 -183 -67 -171 -145 -311 -275 -487 -26 -36 -88
-123 -137 -195 -49 -71 -103 -146 -120 -166 -17 -20 -53 -66 -79 -102 -26 -36
-80 -96 -119 -133 -38 -38 -77 -85 -85 -104 -29 -68 -91 -139 -145 -165 -29
-14 -57 -25 -64 -25 -21 0 -103 98 -129 155 l-26 55 41 49 c37 44 56 57 112
74 11 4 28 -9 52 -40 20 -26 36 -50 36 -55 0 -4 9 -8 20 -8 28 0 25 -15 -20
-97 -37 -69 -40 -82 -13 -65 13 8 73 131 73 147 -1 6 -11 23 -24 39 -17 20
-22 34 -16 45 24 46 70 151 70 160 0 5 16 37 35 70 20 33 48 91 64 128 58 138
131 293 161 339 16 26 30 52 30 57 0 18 69 146 115 213 l45 66 -42 75 c-24 41
-55 90 -70 108 -16 18 -28 37 -28 43 0 24 -201 139 -325 186 -38 15 -99 39
-134 53 l-63 26 6 46 c3 25 13 93 21 151 8 58 15 137 15 175 0 105 9 147 29
140 9 -3 86 -49 171 -102z m-2377 -407 c14 -35 18 -176 8 -227 -21 -95 -39
-121 -96 -136 -47 -12 -55 -12 -130 15 l-79 27 -27 100 c-15 55 -28 125 -28
155 l-1 55 113 3 c62 2 128 7 147 12 54 13 87 11 93 -4z m2184 -71 c6 -7 28
-16 47 -19 43 -8 170 -65 284 -126 91 -49 140 -96 187 -181 53 -95 52 -93 2
-167 -25 -37 -72 -121 -105 -187 -33 -66 -74 -147 -91 -180 -17 -33 -53 -114
-81 -180 l-49 -120 -168 -12 c-92 -7 -174 -11 -180 -8 -14 5 -12 28 14 195 8
52 18 156 23 230 5 74 16 214 25 310 25 273 34 381 34 428 1 40 3 43 23 36 12
-3 28 -12 35 -19z m-2488 -440 c32 -32 23 -39 -36 -29 -45 8 -48 11 -51 41 -3
32 -3 32 30 23 18 -6 44 -21 57 -35z m754 -517 c9 -35 26 -110 37 -167 12 -58
23 -108 26 -113 3 -4 -20 -8 -52 -8 l-57 0 8 108 c4 59 8 137 9 175 0 37 3 67
6 67 3 0 13 -28 23 -62z m1905 -250 c-8 -13 -18 -36 -22 -53 -4 -16 -13 -33
-19 -37 -7 -4 -76 -8 -155 -8 l-143 0 3 45 3 44 50 5 c28 3 88 9 135 14 47 5
102 10 124 11 37 1 38 1 24 -21z m-1830 -115 l3 -43 -64 0 c-35 0 -66 2 -68 4
-3 3 -3 23 -1 46 l4 41 62 -3 61 -3 3 -42z m1762 -7 c0 -2 -9 -26 -20 -52
l-21 -47 -22 22 c-13 11 -30 21 -38 21 -20 0 -119 -47 -119 -57 -1 -4 -11 -21
-24 -37 l-24 -29 -1 75 c0 49 4 79 12 85 6 5 52 10 102 12 49 1 92 4 94 7 6 5
61 5 61 0z m-306 -242 c18 -48 -1 -69 -121 -128 -48 -24 -93 -37 -154 -45 -47
-6 -116 -18 -155 -27 -149 -33 -778 -50 -946 -25 -70 10 -86 16 -81 28 3 8 1
18 -6 22 -9 6 -9 15 -1 35 9 26 14 28 53 23 23 -3 101 -10 172 -16 72 -7 157
-19 190 -28 45 -11 81 -14 145 -9 131 11 275 34 385 62 240 62 293 76 350 89
33 7 71 18 85 24 38 15 77 13 84 -5z m36 -158 c0 -56 25 -191 49 -272 12 -38
21 -94 21 -133 0 -36 7 -93 14 -126 8 -33 21 -89 30 -125 8 -36 20 -114 26
-175 6 -60 17 -135 25 -165 8 -30 21 -125 30 -210 9 -85 22 -182 30 -215 29
-119 45 -198 43 -200 -54 -35 -173 -99 -203 -109 -120 -41 -96 -39 -445 -33
-41 1 -100 0 -130 -3 l-54 -5 -8 45 c-5 25 -12 131 -17 235 -5 105 -17 240
-25 300 -9 61 -18 138 -21 172 -3 34 -12 104 -21 155 -31 177 -33 193 -33 281
-1 112 -20 116 -23 5 -2 -109 1 -153 12 -208 11 -48 46 -428 60 -650 9 -126
32 -297 46 -333 4 -12 -4 -18 -33 -23 -68 -14 -177 -9 -214 10 -30 15 -35 15
-45 1 -7 -9 -27 -15 -50 -15 -21 0 -66 -5 -99 -10 -194 -33 -190 -33 -283 1
-80 28 -162 55 -344 111 l-68 21 0 51 c0 54 10 124 34 241 7 39 14 126 15 195
1 160 16 304 40 389 11 36 23 102 26 146 10 129 46 338 73 420 8 28 16 61 17
75 5 73 -5 68 93 54 201 -27 818 -14 962 21 36 9 111 22 168 30 103 13 157 34
241 91 44 29 61 18 61 -40z m-4040 -178 c0 -49 -5 -47 -14 5 -4 23 -3 37 4 37
5 0 10 -19 10 -42z m-98 -20 c-7 -81 -17 -81 -28 0 -6 48 -5 52 13 52 18 0 20
-5 15 -52z m76 -128 c3 -110 2 -149 -7 -155 -9 -5 -12 -1 -10 11 2 11 0 24 -4
31 -4 7 -7 65 -7 130 1 65 2 129 2 143 0 22 1 22 10 6 6 -10 13 -85 16 -166z
m-137 133 c1 -21 2 -53 3 -70 2 -49 -7 -40 -26 27 -23 75 -22 80 2 80 16 0 20
-7 21 -37z m-81 -29 c0 -12 3 -37 6 -55 4 -19 4 -31 0 -28 -7 7 -36 113 -36
132 1 22 30 -26 30 -49z m-72 -20 c8 -31 11 -58 8 -61 -3 -3 -7 0 -10 8 -2 8
-9 29 -15 48 -13 40 -14 61 -3 61 4 0 13 -25 20 -56z m339 -21 c-2 -16 -4 -3
-4 27 0 30 2 43 4 28 2 -16 2 -40 0 -55z m-373 4 c8 -26 10 -47 5 -47 -5 0
-11 11 -14 25 -3 14 -8 37 -11 52 -9 42 4 22 20 -30z m-45 -39 c7 -40 13 -83
15 -96 5 -35 -9 -13 -28 42 -17 54 -22 126 -7 126 5 0 14 -33 20 -72z m217
-121 c1 -89 -13 -96 -21 -10 -3 38 -9 82 -11 98 l-6 30 19 -25 c13 -18 18 -44
19 -93z m-138 12 c18 -34 32 -71 31 -83 0 -15 -2 -16 -6 -6 -3 8 -9 17 -12 20
-4 3 -13 24 -19 47 -7 23 -19 49 -27 57 -17 16 -19 26 -7 26 5 0 23 -28 40
-61z m71 19 c1 -5 -3 -8 -9 -8 -5 0 -10 12 -9 28 0 24 1 25 9 7 5 -11 9 -23 9
-27z m140 -43 c9 -50 9 -81 0 -128 -6 -34 -11 -110 -10 -169 1 -60 -2 -108 -7
-108 -14 0 -37 233 -23 238 7 2 11 41 11 118 0 63 4 114 9 114 5 0 14 -29 20
-65z m-121 -85 c5 -47 6 -112 2 -145 -7 -63 -13 -46 -15 45 0 30 -5 89 -9 130
-6 49 -5 72 1 65 6 -5 15 -48 21 -95z m-88 10 c-1 -12 -4 -11 -15 4 -8 10 -12
23 -8 29 7 11 23 -12 23 -33z m319 -102 c1 -12 -6 -18 -19 -18 -15 0 -20 7
-20 29 0 16 5 42 12 58 l11 28 8 -40 c4 -22 8 -48 8 -57z m-82 -15 c-3 -10 -5
-4 -5 12 0 17 2 24 5 18 2 -7 2 -21 0 -30z m-310 13 c1 -1 18 -58 38 -126 35
-120 50 -154 64 -145 4 2 66 5 138 6 146 1 162 8 164 72 0 17 8 61 18 97 l17
65 174 -1 c337 -2 566 -48 663 -134 26 -23 47 -46 47 -51 0 -6 -17 -17 -37
-25 -21 -8 -47 -19 -58 -23 -121 -51 -340 -132 -375 -140 -25 -6 -83 -11 -130
-11 -47 0 -130 -7 -185 -16 -55 -8 -217 -19 -360 -24 -277 -8 -366 -1 -485 39
-30 11 -81 24 -112 30 -32 6 -119 31 -194 56 -74 25 -139 45 -143 45 -5 0 -26
7 -46 16 -30 12 -35 18 -24 26 11 7 11 11 2 15 -21 8 -15 19 28 62 82 80 259
136 484 151 83 6 175 15 205 19 46 7 99 6 107 -3z m383 -83 c0 -27 -5 -55 -10
-63 -7 -11 -10 3 -10 48 0 35 4 62 10 62 6 0 10 -21 10 -47z m-56 -24 c9 -93
8 -119 -8 -119 -9 0 -15 16 -18 45 -6 52 1 135 12 135 4 0 10 -28 14 -61z
m-207 9 c-3 -8 -6 -5 -6 6 -1 11 2 17 5 13 3 -3 4 -12 1 -19z m101 -108 c1
-28 -1 -31 -8 -15 -5 11 -8 49 -8 85 l1 65 7 -50 c5 -27 8 -66 8 -85z m-1051
53 c-40 -41 -50 -46 -65 -36 -9 7 -39 25 -66 40 l-50 28 50 6 c27 3 78 7 114
7 l65 2 -48 -47z m2153 -125 c0 -7 -11 -62 -24 -123 -30 -130 -55 -256 -91
-455 -15 -80 -39 -213 -55 -296 -16 -83 -32 -181 -36 -218 -4 -36 -11 -66 -15
-66 -5 0 -8 -15 -7 -32 1 -42 -12 -121 -19 -114 -3 3 -14 -6 -25 -19 -12 -16
-41 -31 -76 -41 -31 -8 -77 -23 -102 -33 -25 -10 -57 -21 -72 -25 -26 -6 -28
-4 -28 23 0 16 9 87 19 157 10 71 24 188 30 259 7 72 19 173 27 225 9 52 19
185 24 295 5 110 12 215 16 233 4 19 2 32 -3 32 -12 0 -21 -87 -33 -325 -5
-100 -11 -187 -14 -195 -3 -8 -17 -118 -31 -245 -40 -353 -55 -459 -68 -471
-34 -31 -335 -91 -338 -68 0 5 -5 164 -10 354 -5 190 -10 368 -12 395 -2 28
-7 148 -12 268 -7 177 -11 217 -22 217 -12 0 -14 -33 -9 -217 6 -224 21 -656
31 -890 l6 -133 -103 0 c-57 0 -158 7 -223 17 -66 9 -130 16 -141 16 -24 -1
-19 -44 -54 467 -6 80 -11 179 -11 220 0 41 -7 138 -15 215 -7 77 -14 177 -14
223 0 66 -3 82 -15 82 -12 0 -14 -9 -10 -37 6 -51 23 -309 30 -468 4 -71 13
-209 21 -305 9 -96 18 -221 21 -277 l6 -103 -35 0 c-20 0 -54 7 -77 15 -22 8
-69 19 -104 25 -34 6 -70 13 -79 16 -19 6 -31 55 -48 204 -6 52 -18 133 -27
180 -8 47 -19 117 -24 155 -5 39 -13 102 -19 140 -5 39 -17 135 -25 215 -8 80
-19 168 -25 195 -5 28 -12 77 -15 110 -4 33 -9 72 -11 88 -5 22 -2 27 13 27
11 0 24 -5 30 -11 5 -5 48 -19 94 -30 116 -26 231 -61 248 -73 9 -7 111 -12
280 -13 146 -1 275 -3 286 -3 11 -1 67 8 125 20 118 23 347 44 399 36 19 -3
40 -1 47 5 7 6 34 18 61 29 82 31 307 120 328 130 28 12 35 12 35 -2z m150
-20 c30 -11 99 -33 153 -48 140 -41 175 -64 240 -162 59 -90 277 -529 277
-559 0 -10 -30 -76 -66 -146 -37 -71 -80 -155 -96 -188 -17 -33 -49 -89 -73
-125 -23 -36 -56 -92 -74 -125 -32 -61 -289 -391 -336 -433 -35 -30 -67 -28
-172 9 -100 36 -109 42 -130 82 -15 29 -15 30 37 82 32 32 64 55 83 59 26 5
35 1 60 -29 54 -66 70 -52 177 164 39 76 70 142 70 145 0 3 11 29 24 58 13 29
38 91 56 138 17 47 46 119 64 160 31 69 35 75 61 72 26 -3 27 -2 21 30 -4 18
-7 48 -7 66 1 28 -2 32 -17 28 -14 -5 -22 1 -31 21 -21 47 -122 193 -157 228
-18 18 -59 43 -91 54 -32 12 -67 25 -78 30 -11 5 -51 21 -90 37 -38 15 -71 28
-73 29 -4 3 27 196 45 276 20 89 13 86 123 47z m-2125 -78 c15 -30 40 -199 56
-371 12 -140 44 -377 88 -644 16 -99 31 -200 34 -224 l5 -43 -31 6 c-17 3 -47
11 -67 16 l-36 10 -23 117 c-13 65 -39 179 -58 253 -19 74 -41 171 -48 215
-23 141 -53 304 -69 366 -9 33 -16 71 -16 84 0 12 -11 52 -24 87 -18 48 -46
182 -46 222 0 2 50 -13 111 -33 88 -29 114 -42 124 -61z m2070 -338 c195 -76
206 -86 307 -265 l61 -108 -16 -37 c-8 -20 -36 -90 -62 -154 -55 -138 -20
-124 -337 -134 l-217 -7 5 49 c3 27 11 76 19 109 18 82 32 153 51 260 8 50 26
143 40 208 13 64 24 120 24 123 0 3 3 4 8 2 4 -1 57 -22 117 -46z m2580 -567
c4 -53 5 -98 3 -100 -3 -3 -93 -2 -200 2 l-196 6 -6 51 c-4 28 -9 61 -12 72
-5 21 -2 21 103 22 67 1 142 9 198 21 50 11 93 20 97 20 3 1 9 -42 13 -94z
m419 70 c11 -41 6 -156 -6 -160 -7 -2 -93 -6 -190 -8 l-178 -5 0 97 0 97 184
0 c177 0 185 -1 190 -21z m-874 -52 c0 -21 3 -55 6 -75 l7 -38 -206 0 -205 0
-4 31 c-10 69 -3 76 78 84 41 4 96 13 122 20 26 7 82 13 125 14 l77 1 0 -37z
m-2509 -504 c-5 -63 -14 -126 -21 -140 -25 -54 -206 -112 -385 -124 -55 -3
-165 -13 -245 -22 -207 -22 -470 -13 -597 21 -87 24 -225 84 -237 104 -3 5
-26 15 -52 22 -55 16 -70 37 -78 110 -4 30 -9 72 -13 94 l-5 39 38 -8 c22 -4
55 -14 74 -23 19 -8 69 -23 110 -32 41 -10 102 -25 135 -34 33 -9 103 -23 155
-31 52 -8 122 -19 155 -25 33 -5 138 -10 233 -11 177 0 300 15 387 48 27 10
41 11 43 4 6 -19 32 -12 32 9 0 14 9 21 38 26 20 3 55 15 77 25 55 25 159 66
163 64 1 -1 -2 -54 -7 -116z m-1567 -170 c33 -17 90 -48 126 -69 75 -44 199
-77 335 -91 119 -11 391 -11 435 0 19 5 107 15 195 21 181 12 291 31 384 66
79 30 81 30 81 -1 0 -43 -45 -62 -245 -99 -71 -14 -145 -28 -162 -32 -27 -5
-33 -3 -33 10 0 23 -17 20 -23 -4 -4 -16 -14 -20 -47 -20 -23 0 -67 -8 -98
-17 -46 -14 -98 -17 -272 -17 -231 -1 -284 7 -356 49 -23 14 -50 25 -58 25 -9
0 -53 19 -99 41 -45 23 -103 52 -128 64 -25 13 -64 28 -87 34 -23 7 -42 16
-42 22 0 14 19 49 27 49 3 0 33 -14 67 -31z m136 -165 c102 -51 204 -98 227
-105 l43 -12 -6 -71 c-3 -39 -7 -84 -10 -101 -40 -246 -50 -350 -75 -800 -6
-110 -12 -201 -14 -203 -9 -9 -174 57 -276 109 -63 33 -144 74 -181 91 -77 35
-75 31 -58 160 26 203 80 772 80 857 0 29 5 83 12 118 l12 64 30 -7 c17 -4
114 -48 216 -100z m1445 7 c3 -6 10 -36 16 -68 6 -32 35 -137 64 -233 30 -96
72 -247 94 -335 23 -88 50 -191 61 -230 30 -109 31 -108 -57 -159 -87 -50
-207 -123 -286 -175 -56 -37 -217 -121 -230 -121 -5 0 -6 3 -4 8 7 11 -10 308
-28 467 -18 168 -30 258 -56 430 -11 72 -21 172 -22 224 l-2 94 50 13 c28 8
95 21 149 30 55 9 129 27 165 39 80 28 78 27 86 16z m-481 -202 c3 -56 13
-148 21 -203 14 -96 37 -314 56 -531 4 -55 15 -167 24 -249 8 -82 13 -151 10
-154 -2 -3 -76 0 -162 7 -87 6 -283 11 -437 11 l-278 0 7 78 c3 42 10 106 15
142 5 36 12 133 15 215 7 167 42 531 52 548 4 6 9 53 12 104 l6 93 235 4 c172
2 250 8 290 19 56 16 110 25 121 20 3 -1 9 -48 13 -104z"/>
<path d="M6405 7750 c3 -5 8 -10 11 -10 2 0 4 5 4 10 0 6 -5 10 -11 10 -5 0
-7 -4 -4 -10z"/>
<path d="M7045 7644 c-49 -7 -106 -18 -125 -23 -69 -20 -302 -70 -381 -82 -69
-11 -82 -11 -90 2 -5 8 -9 9 -9 4 0 -6 -18 -9 -42 -8 -36 2 -32 0 22 -12 71
-16 142 -9 335 35 205 46 313 68 365 74 67 8 103 26 50 25 -19 -1 -75 -7 -125
-15z"/>
<path d="M6208 7543 c29 -2 74 -2 100 0 26 2 2 3 -53 3 -55 0 -76 -1 -47 -3z"/>
<path d="M6445 7438 c3 -24 10 -120 15 -213 5 -94 14 -183 20 -199 33 -88 61
-318 81 -671 5 -93 16 -282 24 -420 8 -137 16 -331 16 -430 l2 -180 13 135
c11 104 12 170 4 290 -5 85 -14 274 -20 420 -6 146 -15 292 -20 325 -5 33 -16
134 -25 225 -10 104 -25 198 -41 255 -23 79 -42 261 -54 498 0 4 -5 7 -11 7
-6 0 -8 -16 -4 -42z"/>
<path d="M6548 9193 c7 -3 16 -2 19 1 4 3 -2 6 -13 5 -11 0 -14 -3 -6 -6z"/>
<path d="M4409 8792 c-64 -38 -82 -53 -108 -89 l-24 -32 -39 26 c-21 15 -52
26 -68 26 -31 0 -78 -26 -87 -49 -9 -25 6 -29 30 -7 64 59 133 27 183 -84 13
-29 26 -53 29 -53 2 0 2 7 -1 15 -4 8 -2 15 4 15 6 0 5 16 -3 43 -12 39 -11
49 5 85 12 26 36 54 66 74 71 50 80 57 69 57 -5 0 -31 -13 -56 -27z"/>
<path d="M3730 8301 c-25 -11 -67 -27 -94 -38 -67 -25 -80 -48 -73 -129 l5
-64 -44 40 c-24 22 -49 40 -56 41 -7 0 -23 2 -34 4 -23 5 -104 -58 -92 -70 4
-4 21 4 38 19 36 30 59 32 106 10 37 -18 84 -99 84 -146 0 -30 17 -38 27 -12
3 9 1 61 -5 116 -7 66 -7 107 -1 121 12 27 58 57 121 81 25 9 52 24 58 32 15
18 15 17 -40 -5z"/>
<path d="M1655 5660 c-60 -4 -322 -8 -581 -9 -619 -1 -1074 -12 -1074 -24 0
-10 1586 -2 1797 9 102 6 121 9 112 21 -12 14 -63 15 -254 3z"/>
<path d="M855 5490 c-16 -4 -216 -5 -442 -2 -364 5 -413 3 -413 -10 0 -13 52
-16 393 -20 215 -3 417 -2 447 2 30 4 107 3 170 -3 84 -7 154 -7 260 2 80 6
295 12 477 14 217 1 332 5 330 12 -3 9 -493 11 -917 3 -91 -2 -190 0 -220 3
-30 4 -68 3 -85 -1z"/>
</g>
</svg>
